<?xml version="1.0" encoding="UTF-8"?>
<svg version="1.1" xmlns="http://www.w3.org/2000/svg" width="800" height="600">
<path d="M0 0 C0.06942079 9.09228651 0.12277071 18.18448221 0.15543652 27.27697563 C0.17111216 31.49871028 0.19238472 35.72026402 0.22631836 39.94189453 C0.25884463 44.01378286 0.2768387 48.08549685 0.28463173 52.15750504 C0.29018741 53.71330639 0.30103596 55.26909788 0.31719017 56.82482529 C0.33887574 58.99915149 0.34197077 61.17275154 0.34057617 63.34716797 C0.35056892 65.20581985 0.35056892 65.20581985 0.36076355 67.10202026 C0.24171158 68.05835358 0.12265961 69.01468689 0 70 C-3.24251726 72.16167818 -4.84089849 72.42250714 -8.64550781 72.86962891 C-9.80391174 73.00962311 -10.96231567 73.14961731 -12.15582275 73.29385376 C-13.4089325 73.43664764 -14.66204224 73.57944153 -15.953125 73.7265625 C-17.24184509 73.87910492 -18.53056519 74.03164734 -19.8583374 74.18881226 C-22.58810381 74.51143548 -25.31843025 74.82860087 -28.04931641 75.14160156 C-31.53475115 75.54126042 -35.01883096 75.95151692 -38.50258255 76.36556435 C-41.83973421 76.76129815 -45.17768056 77.15006997 -48.515625 77.5390625 C-49.76063782 77.68590485 -51.00565063 77.83274719 -52.28839111 77.98403931 C-54.04490997 78.18457413 -54.04490997 78.18457413 -55.83691406 78.38916016 C-56.86044983 78.50748199 -57.8839856 78.62580383 -58.9385376 78.74771118 C-62.28207868 79.02324552 -65.64512502 79 -69 79 C-69 96.82 -69 114.64 -69 133 C-64.05 133.33 -59.1 133.66 -54 134 C-49.82132976 134.41712647 -45.65456989 134.85417832 -41.484375 135.33984375 C-40.38071594 135.46686172 -39.27705688 135.5938797 -38.13995361 135.7247467 C-35.84095765 135.99087895 -33.54218991 136.25899 -31.24365234 136.52905273 C-27.71675679 136.94138651 -24.18855063 137.34095457 -20.66015625 137.74023438 C-18.41397213 138.00182936 -16.16787485 138.26417138 -13.921875 138.52734375 C-12.86885193 138.6451268 -11.81582886 138.76290985 -10.730896 138.88426208 C-9.75847961 139.00100784 -8.78606323 139.1177536 -7.78417969 139.23803711 C-6.93007507 139.33716904 -6.07597046 139.43630096 -5.19598389 139.53843689 C-3 140 -3 140 0 142 C0.36076355 144.89797974 0.36076355 144.89797974 0.34057617 148.65283203 C0.34101425 149.33587402 0.34145233 150.01891602 0.34190369 150.72265625 C0.33981044 152.98466388 0.31645543 155.24593406 0.29296875 157.5078125 C0.28737467 159.07436722 0.28310369 160.64092718 0.28010559 162.20748901 C0.26864192 166.33402962 0.23916195 170.46025429 0.20599365 174.58666992 C0.17532537 178.79601772 0.16160721 183.00541648 0.14648438 187.21484375 C0.11429344 195.47670761 0.06307904 203.73831453 0 212 C-3.96 211.34 -7.92 210.68 -12 210 C-12 209.34 -12 208.68 -12 208 C-12.67724121 207.88664307 -13.35448242 207.77328613 -14.05224609 207.65649414 C-17.53510599 206.88082657 -20.82080088 205.72055972 -24.1640625 204.49609375 C-25.54685683 203.99799642 -26.92966988 203.49995108 -28.3125 203.00195312 C-30.47677533 202.21769898 -32.64046776 201.43187205 -34.80371094 200.64477539 C-36.90157532 199.88288689 -39.00144424 199.1267429 -41.1015625 198.37109375 C-41.74848053 198.13361923 -42.39539856 197.89614471 -43.06192017 197.651474 C-45.86302779 196.64557652 -47.99603988 196 -51 196 C-51 195.34 -51 194.68 -51 194 C-51.9590625 193.8453125 -51.9590625 193.8453125 -52.9375 193.6875 C-58.82707528 192.36535045 -64.40293692 190.23882523 -70 188 C-70 169.85 -70 151.7 -70 133 C-75.28 132.67 -80.56 132.34 -86 132 C-90.67640631 131.51371422 -95.33465945 131.00546799 -100 130.4375 C-103.96 129.963125 -107.92 129.48875 -112 129 C-112 143.19 -112 157.38 -112 172 C-116.45854609 171.25690898 -119.72173551 170.5040687 -123.8359375 168.93359375 C-125.27525635 168.38916626 -125.27525635 168.38916626 -126.74365234 167.83374023 C-128.54116943 167.14260132 -128.54116943 167.14260132 -130.375 166.4375 C-134.21125 164.973125 -138.0475 163.50875 -142 162 C-142 149.46 -142 136.92 -142 124 C-137.3284375 124.4640625 -137.3284375 124.4640625 -132.5625 124.9375 C-131.11919312 125.08046509 -131.11919312 125.08046509 -129.64672852 125.22631836 C-128.85709717 125.30503174 -128.06746582 125.38374512 -127.25390625 125.46484375 C-126.46314697 125.543396 -125.6723877 125.62194824 -124.85766602 125.70288086 C-120.90285113 126.11407349 -116.95181473 126.56090947 -113 127 C-113 113.14 -113 99.28 -113 85 C-121.04768662 85.98467477 -121.04768662 85.98467477 -129.09472656 86.97460938 C-130.09987305 87.09642578 -131.10501953 87.21824219 -132.140625 87.34375 C-133.68024902 87.53227539 -133.68024902 87.53227539 -135.25097656 87.72460938 C-138 88 -138 88 -142 88 C-142 75.46 -142 62.92 -142 50 C-137.606875 48.35 -133.21375 46.7 -128.6875 45 C-126.61408325 44.21689453 -126.61408325 44.21689453 -124.4987793 43.41796875 C-123.40992432 43.01191406 -122.32106934 42.60585937 -121.19921875 42.1875 C-120.08377686 41.76855469 -118.96833496 41.34960938 -117.8190918 40.91796875 C-115 40 -115 40 -112 40 C-112 54.19 -112 68.38 -112 83 C-100.79623241 81.68801179 -100.79623241 81.68801179 -89.59350586 80.3671875 C-88.17565518 80.20280818 -86.75776999 80.03872624 -85.33984375 79.875 C-84.61994263 79.78863281 -83.9000415 79.70226562 -83.1583252 79.61328125 C-82.09370056 79.49146484 -82.09370056 79.49146484 -81.00756836 79.3671875 C-80.4013414 79.29612793 -79.79511444 79.22506836 -79.17051697 79.15185547 C-76.12071388 78.93848267 -73.05725806 79 -70 79 C-70 60.85 -70 42.7 -70 24 C-53.875 18.1875 -53.875 18.1875 -48.55029297 16.26953125 C-40.71085642 13.44266155 -32.87983895 10.59608041 -25.0703125 7.6875 C-23.69157698 7.17551565 -22.31283369 6.66355222 -20.93408203 6.15161133 C-18.35163315 5.19232201 -15.77251481 4.2246766 -13.19482422 3.25268555 C-11.45869873 2.60746948 -11.45869873 2.60746948 -9.6875 1.94921875 C-8.68074219 1.57112061 -7.67398438 1.19302246 -6.63671875 0.8034668 C-4 0 -4 0 0 0 Z " fill="#333333" transform="translate(336,194)"/>
<path d="M0 0 C9.6097923 0.60061202 19.07356816 1.22323623 28.61328125 2.33984375 C29.71552536 2.46686172 30.81776947 2.5938797 31.95341492 2.7247467 C34.24646585 2.99061403 36.5392581 3.2587219 38.83178711 3.52905273 C42.3497598 3.94187228 45.86910479 4.34126399 49.38867188 4.74023438 C51.63030303 5.00179383 53.87184323 5.26413435 56.11328125 5.52734375 C57.16316727 5.6451268 58.21305328 5.76290985 59.29475403 5.88426208 C60.74853706 6.05938072 60.74853706 6.05938072 62.23168945 6.23803711 C63.08277786 6.33716904 63.93386627 6.43630096 64.81074524 6.53843689 C67 7 67 7 70 9 C70.36076355 11.89797974 70.36076355 11.89797974 70.34057617 15.65283203 C70.34123329 16.67739502 70.34123329 16.67739502 70.34190369 17.72265625 C70.33981044 19.98466388 70.31645543 22.24593406 70.29296875 24.5078125 C70.28737467 26.07436722 70.28310369 27.64092718 70.28010559 29.20748901 C70.26864192 33.33402962 70.23916195 37.46025429 70.20599365 41.58666992 C70.17532537 45.79601772 70.16160721 50.00541648 70.14648438 54.21484375 C70.11429344 62.47670761 70.06307904 70.73831453 70 79 C64.06 78.01 64.06 78.01 58 77 C58 76.34 58 75.68 58 75 C57.32275879 74.88664307 56.64551758 74.77328613 55.94775391 74.65649414 C52.46489401 73.88082657 49.17919912 72.72055972 45.8359375 71.49609375 C44.45314317 70.99799642 43.07033012 70.49995108 41.6875 70.00195312 C39.52322467 69.21769898 37.35953224 68.43187205 35.19628906 67.64477539 C33.09842468 66.88288689 30.99855576 66.1267429 28.8984375 65.37109375 C27.92806046 65.01488197 27.92806046 65.01488197 26.93807983 64.651474 C24.13697221 63.64557652 22.00396012 63 19 63 C19 62.34 19 61.68 19 61 C18.360625 60.896875 17.72125 60.79375 17.0625 60.6875 C11.17292472 59.36535045 5.59706308 57.23882523 0 55 C0 36.85 0 18.7 0 0 Z " fill="#01B2E6" transform="translate(266,327)"/>
<path d="M0 0 C0.06942079 9.09228651 0.12277071 18.18448221 0.15543652 27.27697563 C0.17111216 31.49871028 0.19238472 35.72026402 0.22631836 39.94189453 C0.25884463 44.01378286 0.2768387 48.08549685 0.28463173 52.15750504 C0.29018741 53.71330639 0.30103596 55.26909788 0.31719017 56.82482529 C0.33887574 58.99915149 0.34197077 61.17275154 0.34057617 63.34716797 C0.35056892 65.20581985 0.35056892 65.20581985 0.36076355 67.10202026 C0.24171158 68.05835358 0.12265961 69.01468689 0 70 C-3.2384593 72.15897286 -4.83079757 72.42186141 -8.62963867 72.86962891 C-9.78481491 73.00962311 -10.93999115 73.14961731 -12.13017273 73.29385376 C-13.38014542 73.43664764 -14.6301181 73.57944153 -15.91796875 73.7265625 C-17.20431717 73.87910492 -18.49066559 74.03164734 -19.81599426 74.18881226 C-22.54155962 74.51147234 -25.26769211 74.82861384 -27.99438477 75.14160156 C-31.47080552 75.54086543 -34.94579428 75.95126065 -38.42045116 76.36556435 C-41.75237057 76.76178757 -45.08517678 77.15024479 -48.41796875 77.5390625 C-50.27774605 77.75932602 -50.27774605 77.75932602 -52.1750946 77.98403931 C-53.34603165 78.11772919 -54.51696869 78.25141907 -55.72338867 78.38916016 C-57.2553614 78.56664291 -57.2553614 78.56664291 -58.81828308 78.74771118 C-62.53480528 79.04240647 -66.27181243 79 -70 79 C-70 60.85 -70 42.7 -70 24 C-53.875 18.1875 -53.875 18.1875 -48.55029297 16.26953125 C-40.71085642 13.44266155 -32.87983895 10.59608041 -25.0703125 7.6875 C-23.69157698 7.17551565 -22.31283369 6.66355222 -20.93408203 6.15161133 C-18.35163315 5.19232201 -15.77251481 4.2246766 -13.19482422 3.25268555 C-12.03740723 2.8225415 -10.87999023 2.39239746 -9.6875 1.94921875 C-8.68074219 1.57112061 -7.67398438 1.19302246 -6.63671875 0.8034668 C-4 0 -4 0 0 0 Z " fill="#F54151" transform="translate(336,194)"/>
<path d="M0 0 C3.09375 0.28875 6.1875 0.5775 9.375 0.875 C10.32810059 0.96120605 11.28120117 1.04741211 12.26318359 1.13623047 C13.05031738 1.21244629 13.83745117 1.28866211 14.6484375 1.3671875 C15.43395996 1.44050293 16.21948242 1.51381836 17.02880859 1.58935547 C21.38516339 2.19144164 25.68763687 3.13752737 30 4 C30 18.52 30 33.04 30 48 C25.54145391 47.25690898 22.27826449 46.5040687 18.1640625 44.93359375 C17.2045166 44.57064209 16.2449707 44.20769043 15.25634766 43.83374023 C14.05800293 43.37298096 12.8596582 42.91222168 11.625 42.4375 C7.78875 40.973125 3.9525 39.50875 0 38 C0 25.46 0 12.92 0 0 Z " fill="#F84151" transform="translate(194,318)"/>
<path d="M0 0 C0 14.52 0 29.04 0 44 C-11.25 46.25 -11.25 46.25 -15.3515625 46.6328125 C-16.53226318 46.74713623 -16.53226318 46.74713623 -17.73681641 46.86376953 C-18.68991699 46.94997559 -19.64301758 47.03618164 -20.625 47.125 C-23.71875 47.41375 -26.8125 47.7025 -30 48 C-30 35.46 -30 22.92 -30 10 C-25.606875 8.35 -21.21375 6.7 -16.6875 5 C-15.30522217 4.47792969 -13.92294434 3.95585937 -12.4987793 3.41796875 C-11.40992432 3.01191406 -10.32106934 2.60585937 -9.19921875 2.1875 C-8.08377686 1.76855469 -6.96833496 1.34960938 -5.8190918 0.91796875 C-3 0 -3 0 0 0 Z " fill="#00B3E7" transform="translate(224,234)"/>
<path d="M0 0 C0.00586624 0.65954681 0.01173248 1.31909363 0.01777649 1.99862671 C0.08155692 8.84409827 0.16593598 15.68909297 0.26245117 22.53417969 C0.29576957 25.09108201 0.32377965 27.6480591 0.34643555 30.20507812 C0.37985423 33.87402309 0.43216412 37.54227841 0.48828125 41.2109375 C0.49467117 42.35992523 0.5010611 43.50891296 0.50764465 44.69271851 C0.53733589 46.28414169 0.53733589 46.28414169 0.56762695 47.90771484 C0.58428154 49.31336197 0.58428154 49.31336197 0.60127258 50.74740601 C0.79864265 51.86244003 0.79864265 51.86244003 1 53 C1.99 53.66 2.98 54.32 4 55 C4 55.66 4 56.32 4 57 C-1.08086796 57.84681133 -5.84828377 58.09038099 -11 58 C-11.33 57.34 -11.66 56.68 -12 56 C-12.928125 56.495 -12.928125 56.495 -13.875 57 C-19.48935512 58.79659364 -25.49440509 59.13939356 -30.875 56.4375 C-35.47650777 52.84832394 -37.47789143 49.79097744 -38.53125 44.16015625 C-39.38650022 36.45318549 -38.92538775 30.70815419 -35.3125 23.75 C-31.76208497 19.52788483 -28.67334198 17.26546473 -23.20703125 16.72265625 C-19.19312594 16.67493479 -15.82582699 16.72472434 -12 18 C-11.91909029 16.37581255 -11.86085005 14.75048255 -11.8125 13.125 C-11.77769531 12.22007812 -11.74289062 11.31515625 -11.70703125 10.3828125 C-11.85205078 9.20332031 -11.85205078 9.20332031 -12 8 C-12.99 7.34 -13.98 6.68 -15 6 C-14.67 5.01 -14.34 4.02 -14 3 C-11.34765625 2.05078125 -11.34765625 2.05078125 -8.0625 1.3125 C-6.98097656 1.06113281 -5.89945312 0.80976563 -4.78515625 0.55078125 C-2 0 -2 0 0 0 Z M-23.95703125 24.0625 C-27.6262476 30.87872213 -27.63439199 39.62119129 -25.76171875 46.96875 C-24.6948932 49.81361812 -23.54114084 51.33010745 -21 53 C-16.94036894 54.45730346 -14.8555975 53.66067472 -11 52 C-10.92591413 47.90666095 -10.8714296 43.81358067 -10.83520508 39.71972656 C-10.82010642 38.32675378 -10.79962556 36.93382862 -10.77368164 35.54101562 C-10.73734878 33.54057115 -10.72188808 31.53978173 -10.70703125 29.5390625 C-10.6913208 28.33459473 -10.67561035 27.13012695 -10.65942383 25.88916016 C-10.77181396 24.9357373 -10.8842041 23.98231445 -11 23 C-15.61569133 19.92287244 -20.03169018 19.59091405 -23.95703125 24.0625 Z " fill="#333333" transform="translate(517,254)"/>
<path d="M0 0 C0.33 1.32 0.66 2.64 1 4 C2.134375 3.34 3.26875 2.68 4.4375 2 C9.6079062 -0.58979493 14.51151997 -0.98359399 20.078125 0.5859375 C23.11583183 2.82099822 24.14660572 5.445054 25 9 C25.44072351 13.5604983 25.5113186 18.10798305 25.5625 22.6875 C25.59695395 25.10820909 25.63956903 27.52881951 25.69140625 29.94921875 C25.70373291 31.01487061 25.71605957 32.08052246 25.72875977 33.1784668 C25.86004973 36.31938724 25.86004973 36.31938724 28 40 C21.73 40 15.46 40 9 40 C9.33 39.01 9.66 38.02 10 37 C10.99 36.505 10.99 36.505 12 36 C12 26.1 12 16.2 12 6 C4.75177852 6.64045375 4.75177852 6.64045375 1 8 C1.10981906 12.58382974 1.2404648 17.16683432 1.375 21.75 C1.4059375 23.05195313 1.436875 24.35390625 1.46875 25.6953125 C1.50742187 26.94570313 1.54609375 28.19609375 1.5859375 29.484375 C1.63306885 31.21252441 1.63306885 31.21252441 1.68115234 32.97558594 C1.85147 36.28789656 1.85147 36.28789656 4 40 C-2.27 40 -8.54 40 -15 40 C-14.67 39.01 -14.34 38.02 -14 37 C-13.01 36.505 -13.01 36.505 -12 36 C-12 26.76 -12 17.52 -12 8 C-12.99 7.67 -13.98 7.34 -15 7 C-15 6.01 -15 5.02 -15 4 C-13.25307205 3.32532438 -11.50231475 2.66055844 -9.75 2 C-8.77546875 1.62875 -7.8009375 1.2575 -6.796875 0.875 C-4 0 -4 0 0 0 Z " fill="#333333" transform="translate(447,271)"/>
<path d="M0 0 C6.93 0 13.86 0 21 0 C21 0.66 21 1.32 21 2 C20.01 2.495 20.01 2.495 19 3 C19.42642326 7.54851476 21.44934116 10.538259 23.94140625 14.23046875 C25 16 25 16 25 18 C27.63884562 15.59888822 29.36413529 12.99444972 31.1875 9.9375 C31.98220703 8.62072266 31.98220703 8.62072266 32.79296875 7.27734375 C34.15610182 5.13505184 34.15610182 5.13505184 34 3 C33.34 2.67 32.68 2.34 32 2 C32 1.34 32 0.68 32 0 C36.29 0 40.58 0 45 0 C45 0.66 45 1.32 45 2 C44.12085938 2.53109375 43.24171875 3.0621875 42.3359375 3.609375 C38.14210156 6.26719695 36.08703483 10.03999482 33.625 14.25 C33.17511719 14.99507813 32.72523438 15.74015625 32.26171875 16.5078125 C31.16279778 18.33155368 30.07975359 20.16484568 29 22 C32.40842362 28.4292226 35.95835842 34.77737085 39.625 41.0625 C39.99681396 41.71742432 40.36862793 42.37234863 40.75170898 43.04711914 C42.7383654 46.41230785 44.18928941 48.74988001 48 50 C48 50.99 48 51.98 48 53 C40.74 53 33.48 53 26 53 C26 52.01 26 51.02 26 50 C26.99 50 27.98 50 29 50 C26.62324575 43.92607248 23.43960782 38.53231419 20 33 C15.98128888 38.47205322 12.36150111 43.61005581 10 50 C10.66 50 11.32 50 12 50 C12 50.99 12 51.98 12 53 C8.04 53 4.08 53 0 53 C0 52.01 0 51.02 0 50 C0.71800781 49.59652344 1.43601562 49.19304687 2.17578125 48.77734375 C5.99748367 46.37226132 7.80172262 43.32704737 10.1875 39.5625 C10.84395508 38.55993164 10.84395508 38.55993164 11.51367188 37.53710938 C12.70311705 35.70481902 13.87946867 33.87525347 15 32 C15.63301025 31.04843018 15.63301025 31.04843018 16.27880859 30.07763672 C17.25278517 27.96292404 17.25278517 27.96292404 16.20483398 25.69750977 C15.72344971 24.87049561 15.24206543 24.04348145 14.74609375 23.19140625 C14.22080078 22.27939453 13.69550781 21.36738281 13.15429688 20.42773438 C12.30448242 19.00944336 12.30448242 19.00944336 11.4375 17.5625 C10.89802734 16.62083984 10.35855469 15.67917969 9.80273438 14.70898438 C6.93847274 9.81313547 4.12841156 5.86702237 0 2 C0 1.34 0 0.68 0 0 Z " fill="#343435" transform="translate(558,258)"/>
<path d="M0 0 C1 1 1 1 1.09765625 3.50390625 C1.08605469 4.51324219 1.07445312 5.52257812 1.0625 6.5625 C1.05347656 7.57441406 1.04445313 8.58632813 1.03515625 9.62890625 C1.02355469 10.41136719 1.01195312 11.19382812 1 12 C-0.8515625 11.78125 -0.8515625 11.78125 -3 11 C-4.2734375 8.96875 -4.2734375 8.96875 -5.375 6.5 C-7.23066132 2.72101986 -7.23066132 2.72101986 -10.9375 0.875 C-14.04484491 1.0018304 -16.95941837 1.34844679 -20 2 C-21.66543898 6.70826113 -21.66543898 6.70826113 -21.625 11.625 C-18.61182792 16.02886689 -13.83955921 18.06626512 -9.16796875 20.4375 C-2.20778544 24.01542556 1.46569538 26.39708614 4 34 C4.39614654 39.24894167 3.86557317 42.55342094 1 47 C-4.41625773 52.13119154 -9.42468891 53.36762934 -16.75 53.3125 C-17.45576172 53.31121094 -18.16152344 53.30992187 -18.88867188 53.30859375 C-24.50464696 53.20545371 -28.87077118 52.19824092 -34 50 C-33.67 46.04 -33.34 42.08 -33 38 C-29 39 -29 39 -27.5859375 41.03125 C-27.18632812 41.8459375 -26.78671875 42.660625 -26.375 43.5 C-24.86497402 46.90839542 -24.86497402 46.90839542 -22 49 C-17.27015877 49.65046932 -13.98965075 49.61358346 -9.875 47.0625 C-7.27072517 42.8088511 -7.95958756 39.72821098 -9 35 C-11.31 34.34 -13.62 33.68 -16 33 C-16 32.34 -16 31.68 -16 31 C-16.825 30.79375 -17.65 30.5875 -18.5 30.375 C-23.74820391 28.31320561 -28.02318109 24.97681891 -32 21 C-32 19.68 -32 18.36 -32 17 C-32.66 16.67 -33.32 16.34 -34 16 C-32.37874251 5.01384731 -32.37874251 5.01384731 -28 1 C-18.79328438 -4.37058411 -9.60280835 -4.36491289 0 0 Z " fill="#343434" transform="translate(385,259)"/>
<path d="M0 0 C4.01498447 3.09488387 6.25840561 6.26965818 7 11.3125 C7 13.6225 7 15.9325 7 18.3125 C-0.92 18.6425 -8.84 18.9725 -17 19.3125 C-15.93314074 27.91623476 -15.93314074 27.91623476 -12 31.3125 C-8.38069302 32.51893566 -5.80768995 32.63518559 -2 32.3125 C1.27310553 30.40893013 1.27310553 30.40893013 4 28.3125 C4.66 28.3125 5.32 28.3125 6 28.3125 C5.70985788 31.79420548 5.27243676 33.05478955 2.6875 35.5 C-3.55778742 39.71193803 -8.51693364 39.9553406 -16 39.3125 C-21.41043197 37.44344168 -25.39091533 34.12839818 -28.25 29.125 C-30.35011653 21.24956302 -30.55141052 14.77046209 -27 7.3125 C-21.53454909 -1.79658486 -9.45549394 -4.89766599 0 0 Z M-14.1875 3.1875 C-16.69776198 6.13056577 -17.12345833 7.6580836 -17.0625 11.4375 C-17.041875 12.71625 -17.02125 13.995 -17 15.3125 C-12.71 15.3125 -8.42 15.3125 -4 15.3125 C-3.37355911 8.61939021 -3.37355911 8.61939021 -5.75 2.6875 C-9.13332903 0.61991004 -11.16336011 0.5953801 -14.1875 3.1875 Z " fill="#333334" transform="translate(422,272.6875)"/>
<path d="M0 0 C1.32 0.33 2.64 0.66 4 1 C5.77311816 4.20146335 6.77218542 7.53580886 8 11 C9.32 7.37 10.64 3.74 12 0 C13.32 0 14.64 0 16 0 C16 6.27 16 12.54 16 19 C15.01 19 14.02 19 13 19 C12.67 16.03 12.34 13.06 12 10 C11.01 12.64 10.02 15.28 9 18 C8.01 17.67 7.02 17.34 6 17 C4.8125 13.9375 4.8125 13.9375 4 11 C3.67 13.64 3.34 16.28 3 19 C2.01 19 1.02 19 0 19 C0 12.73 0 6.46 0 0 Z " fill="#343435" transform="translate(431,326)"/>
<path d="M0 0 C8.66666667 0 8.66666667 0 12 2 C14.53972917 5.80959376 14.1766826 9.61043061 13.5234375 13.97265625 C13 16 13 16 11.5 18.0625 C9 19 9 19 0 19 C0 12.73 0 6.46 0 0 Z M3 3 C3 7.62 3 12.24 3 17 C9.00794445 15.76208566 9.00794445 15.76208566 10.5 12.1875 C11.06689522 8.57354299 11.07319375 7.02340755 9 4 C6.03 3.505 6.03 3.505 3 3 Z " fill="#343434" transform="translate(537,326)"/>
<path d="M0 0 C1.32 0 2.64 0 4 0 C5.98 6.27 7.96 12.54 10 19 C8.68 19 7.36 19 6 19 C5.67 17.35 5.34 15.7 5 14 C2.69 14 0.38 14 -2 14 C-2.33 15.65 -2.66 17.3 -3 19 C-3.99 19 -4.98 19 -6 19 C-4.70024676 12.28460827 -2.70071112 6.27980887 0 0 Z M1 4 C0.67 6.31 0.34 8.62 0 11 C1.32 10.67 2.64 10.34 4 10 C3.34 8.02 2.68 6.04 2 4 C1.67 4 1.34 4 1 4 Z " fill="#353537" transform="translate(494,326)"/>
<path d="M0 0 C1.32 0 2.64 0 4 0 C5.98 6.27 7.96 12.54 10 19 C8.68 19 7.36 19 6 19 C5.67 17.35 5.34 15.7 5 14 C2.69 14 0.38 14 -2 14 C-2.33 15.65 -2.66 17.3 -3 19 C-3.99 19 -4.98 19 -6 19 C-4.3186083 12.51292846 -2.46937673 6.2322365 0 0 Z M1 5 C0.67 6.98 0.34 8.96 0 11 C1.32 10.67 2.64 10.34 4 10 C3.34 8.35 2.68 6.7 2 5 C1.67 5 1.34 5 1 5 Z " fill="#343435" transform="translate(455,326)"/>
<path d="M0 0 C1.32 0 2.64 0 4 0 C5.98 6.27 7.96 12.54 10 19 C8.68 19 7.36 19 6 19 C5.67 17.35 5.34 15.7 5 14 C2.05908413 14.18415432 2.05908413 14.18415432 -1 15 C-2.43637698 16.95163118 -2.43637698 16.95163118 -3 19 C-3.99 19 -4.98 19 -6 19 C-4.3186083 12.51292846 -2.46937673 6.2322365 0 0 Z M1 5 C0.67 6.98 0.34 8.96 0 11 C1.32 11 2.64 11 4 11 C3.34 9.02 2.68 7.04 2 5 C1.67 5 1.34 5 1 5 Z " fill="#343435" transform="translate(419,326)"/>
<path d="M0 0 C0.66 0.99 1.32 1.98 2 3 C-1 4 -1 4 -3.5625 3.875 C-4.366875 3.91625 -5.17125 3.9575 -6 4 C-8.16617415 7.24926122 -8.21335669 7.5985242 -7.625 11.1875 C-7.41875 12.445625 -7.2125 13.70375 -7 15 C-3.62182575 15.84454356 -1.32534757 16.10844919 2 15 C1.67 16.32 1.34 17.64 1 19 C-2.1875 19.75 -2.1875 19.75 -6 20 C-8.80189446 18.23358828 -10.51524911 16.96950178 -12 14 C-12.3506291 8.65290626 -12.44403637 5.37127693 -9 1 C-5.95699684 -0.52150158 -3.345915 -0.23899393 0 0 Z " fill="#353536" transform="translate(485,326)"/>
<path d="M0 0 C4.62 0 9.24 0 14 0 C14 0.99 14 1.98 14 3 C12.35 3 10.7 3 9 3 C9 8.28 9 13.56 9 19 C7.68 19 6.36 19 5 19 C5 13.72 5 8.44 5 3 C3.35 3 1.7 3 0 3 C0 2.01 0 1.02 0 0 Z " fill="#313131" transform="translate(520,326)"/>
<path d="M0 0 C10.23 0 20.46 0 31 0 C31 0.99 31 1.98 31 3 C20.77 3 10.54 3 0 3 C0 2.01 0 1.02 0 0 Z " fill="#333333" transform="translate(564,334)"/>
<path d="M0 0 C10.23 0 20.46 0 31 0 C31 0.99 31 1.98 31 3 C20.77 3 10.54 3 0 3 C0 2.01 0 1.02 0 0 Z " fill="#323232" transform="translate(363,334)"/>
<path d="M0 0 C0.99 0 1.98 0 3 0 C3.08089542 2.77141717 3.14044062 5.54047819 3.1875 8.3125 C3.22520508 9.49102539 3.22520508 9.49102539 3.26367188 10.69335938 C3.27817383 11.8293457 3.27817383 11.8293457 3.29296875 12.98828125 C3.31653442 14.03302612 3.31653442 14.03302612 3.34057617 15.09887695 C2.89090389 17.60898309 2.0282572 18.49501126 0 20 C-3.0625 19.875 -3.0625 19.875 -6 19 C-6.66 18.01 -7.32 17.02 -8 16 C-5.66666667 16 -3.33333333 16 -1 16 C-0.67 10.72 -0.34 5.44 0 0 Z " fill="#323232" transform="translate(408,326)"/>
<path d="M0 0 C0.99 0 1.98 0 3 0 C3 5.61 3 11.22 3 17 C5.64 17 8.28 17 11 17 C11 17.66 11 18.32 11 19 C7.37 19 3.74 19 0 19 C0 12.73 0 6.46 0 0 Z " fill="#323232" transform="translate(511,326)"/>
<path d="M0 0 C0.99 0 1.98 0 3 0 C3 6.27 3 12.54 3 19 C2.01 19 1.02 19 0 19 C0 12.73 0 6.46 0 0 Z " fill="#323232" transform="translate(467,326)"/>
<path d="M0 0 C0.66 0.33 1.32 0.66 2 1 C2 2.32 2 3.64 2 5 C0.68 4.67 -0.64 4.34 -2 4 C-2 3.01 -2 2.02 -2 1 C-1.34 0.67 -0.68 0.34 0 0 Z " fill="#3B3A3F" transform="translate(555,341)"/>
</svg>
