<svg width="10" height="6" viewBox="0 0 10 6" fill="none" xmlns="http://www.w3.org/2000/svg">
<path id="Vector" d="M8.73684 0.355503C8.8797 0.217459 9.06767 0.140768 9.26316 0.148437C9.45865 0.148437 9.6391 0.225128 9.78195 0.370841C9.91729 0.508884 10 0.700613 10 0.900009C10 1.09941 9.93233 1.29113 9.79699 1.43685L5.54135 5.77756C5.47368 5.84658 5.39098 5.90027 5.30075 5.93861C5.21053 5.97696 5.11278 5.99997 5.01504 5.99997C4.91729 5.99997 4.81955 5.97696 4.7218 5.93861C4.63158 5.90027 4.54887 5.84658 4.4812 5.77756L0.225564 1.43685C0.157895 1.36783 0.0977441 1.28346 0.0601502 1.19144C0.0225562 1.09174 -2.23287e-07 0.992039 -2.27732e-07 0.892341C-2.32178e-07 0.792642 0.0150374 0.685275 0.0526313 0.593246C0.0902253 0.501216 0.150376 0.416856 0.218045 0.340165C0.285714 0.271143 0.37594 0.217459 0.466165 0.179113C0.556391 0.133099 0.654135 0.117761 0.759398 0.117761C0.857142 0.117761 0.954887 0.140768 1.04511 0.179113C1.13534 0.217459 1.21804 0.278812 1.29323 0.355503L5.01504 4.15171L5.71428 3.43081L8.73684 0.355503Z" fill="#7C7C7C"/>
</svg>
