<svg width="19" height="24" viewBox="0 0 19 24" fill="none" xmlns="http://www.w3.org/2000/svg">
<path fill-rule="evenodd" clip-rule="evenodd" d="M1 10.363C1.01577 5.68116 4.7917 1.89869 9.43376 1.9146C14.0758 1.93051 17.8262 5.73876 17.8104 10.4206V10.5166C17.7533 13.5599 16.0684 16.3728 14.0028 18.5713C12.8215 19.8086 11.5023 20.9039 10.0715 21.8355C9.68895 22.1693 9.12146 22.1693 8.73888 21.8355C6.60591 20.4353 4.73387 18.6674 3.20839 16.6129C1.84876 14.8212 1.07681 12.6466 1 10.3918L1 10.363Z" stroke="#181725" stroke-width="2" stroke-linecap="round" stroke-linejoin="round"/>
<path fill-rule="evenodd" clip-rule="evenodd" d="M9.40523 12.8876C10.6984 12.8876 11.7467 11.8303 11.7467 10.526C11.7467 9.22175 10.6984 8.16444 9.40523 8.16444C8.11205 8.16444 7.06372 9.22175 7.06372 10.526C7.06372 11.8303 8.11205 12.8876 9.40523 12.8876Z" stroke="#181725" stroke-width="2" stroke-linecap="round" stroke-linejoin="round"/>
</svg>
