<svg width="16" height="15" viewBox="0 0 16 15" fill="none" xmlns="http://www.w3.org/2000/svg">
<path id="Vector" d="M10.1494 4.0539L2.83196 11.3713L2.35348 13.0035L3.95248 12.5412L11.2942 5.19952L10.1494 4.0539ZM11.3978 2.80546L12.5426 3.95027L13.6097 2.88318C13.6856 2.80727 13.7282 2.70432 13.7282 2.59698C13.7282 2.48964 13.6856 2.38669 13.6097 2.31078L13.0365 1.73837C12.9606 1.66248 12.8576 1.61985 12.7503 1.61985C12.6429 1.61985 12.54 1.66248 12.4641 1.73837L11.3986 2.80546H11.3978ZM14.1821 0.593565L14.7545 1.16597C15.1339 1.54554 15.3471 2.06027 15.3471 2.59698C15.3471 3.13369 15.1339 3.64842 14.7545 4.02799L4.80259 13.9807L1.38597 14.9684C1.24671 15.0086 1.09922 15.0106 0.958901 14.9743C0.818583 14.938 0.690582 14.8647 0.588261 14.7621C0.48594 14.6594 0.413051 14.5312 0.377204 14.3908C0.341357 14.2503 0.343866 14.1028 0.384469 13.9637L1.39488 10.5188L11.3209 0.592755C11.7004 0.213302 12.2152 0.000137329 12.7519 0.000137329C13.2886 0.000137329 13.8033 0.213302 14.1829 0.592755L14.1821 0.593565Z" fill="#4791CE"/>
</svg>
