<svg width="10" height="14" viewBox="0 0 10 14" fill="none" xmlns="http://www.w3.org/2000/svg">
<g id="back arrow" clip-path="url(#clip0_35_355)">
<path id="Vector" d="M1.29448 1.76842C1.09735 1.56842 0.987835 1.30526 0.998787 1.03158C0.998787 0.757894 1.1083 0.505262 1.31639 0.305262C1.51352 0.115788 1.78731 -1.61526e-06 2.07206 -1.59037e-06C2.35681 -1.56547e-06 2.6306 0.0947365 2.83868 0.28421L9.03738 6.2421C9.13595 6.33684 9.21261 6.45263 9.26737 6.57895C9.32213 6.70526 9.35498 6.8421 9.35498 6.97895C9.35498 7.11579 9.32213 7.25263 9.26737 7.38947C9.21261 7.51579 9.13595 7.63158 9.03738 7.72632L2.83868 13.6842C2.74012 13.7789 2.61965 13.8632 2.48823 13.9158C2.34585 13.9684 2.20348 14 2.06111 14C1.91873 14 1.76541 13.9789 1.63399 13.9263C1.50257 13.8737 1.3821 13.7895 1.27258 13.6947C1.17401 13.6 1.09735 13.4737 1.04259 13.3474C0.976882 13.2211 0.954979 13.0842 0.954979 12.9368C0.954979 12.8 0.987834 12.6632 1.04259 12.5368C1.09735 12.4105 1.18497 12.2947 1.29448 12.1895L6.71561 6.97895L5.68614 6L1.29448 1.76842Z" fill="#181725"/>
</g>
<defs>
<clipPath id="clip0_35_355">
<rect width="8.4" height="14" fill="white" transform="translate(9.35498 14) rotate(-180)"/>
</clipPath>
</defs>
</svg>
