<svg width="20" height="20" viewBox="0 0 20 20" fill="none" xmlns="http://www.w3.org/2000/svg">
<g id="Group 427323673">
<path id="Vector" d="M11.2704 0.308405C11.1728 0.210471 11.0568 0.132804 10.9291 0.079875C10.8014 0.026946 10.6645 -0.000199409 10.5262 1.10275e-06H1.05262C0.773448 1.10275e-06 0.50571 0.110897 0.308305 0.308293C0.110901 0.505689 0 0.773415 0 1.05258V10.5257C0 10.8057 0.110525 11.0731 0.308418 11.2699L8.72938 19.6905C8.82691 19.7886 8.94287 19.8664 9.07059 19.9195C9.1983 19.9727 9.33526 20 9.47359 20C9.61191 20 9.74887 19.9727 9.87658 19.9195C10.0043 19.8664 10.1203 19.7886 10.2178 19.6905L19.6914 10.2173C19.7892 10.1197 19.8668 10.0037 19.9198 9.87598C19.9727 9.74829 20 9.61141 20 9.47317C20 9.33493 19.9727 9.19805 19.9198 9.07035C19.8668 8.94266 19.7892 8.82666 19.6914 8.729L11.2704 0.308405ZM9.47359 17.458L2.10524 10.09V2.10515H10.0904L17.4588 9.47317L9.47359 17.458Z" fill="black"/>
<path id="Vector_2" d="M5.78512 7.36802C6.66005 7.36802 7.36932 6.65878 7.36932 5.78389C7.36932 4.909 6.66005 4.19977 5.78512 4.19977C4.9102 4.19977 4.20093 4.909 4.20093 5.78389C4.20093 6.65878 4.9102 7.36802 5.78512 7.36802Z" fill="black"/>
</g>
</svg>
